<svg id="Layer_1" data-name="Layer 1" xmlns="http://www.w3.org/2000/svg" viewBox="0 0 324 324"><defs><style>.cls-1{fill:#1c2880;}.cls-2{fill:#ffdf22;}</style></defs><path class="cls-1" d="M274.53,141.18A103.88,103.88,0,0,0,170.65,37.3c-57.37,0-104.87,46.51-103.88,103.88C68.36,232.89,149,279.24,198.28,280.89a130.12,130.12,0,0,1-54-39.24h0c-32.75-34.74-55.55-99.77-56.61-102.83l-2.77-8L205,80.63l-.64,42.6L236.71,117l13.77-2.68-6.17,10.94c-.4.71-.91,1.86-1.33,2.86s-.87,2.11-1.27,3.2c-.8,2.17-1.55,4.39-2.2,6.66a127.45,127.45,0,0,0-3.23,13.89,139.83,139.83,0,0,0-1.71,14.37c-.37,4.84-.39,9.72-.31,14.63-1.11-4.77-2.14-9.6-2.81-14.51A146.64,146.64,0,0,1,230,151.43a137,137,0,0,1,.24-15.15c.08-1.14.18-2.29.3-3.44l-26.5,10.72-.89,59.73-14.37-96.41-81.25,34c8,20.65,31.33,76.09,59.4,97.3l.3.23c.06,0,3.69,3,8.64,6.54A103.88,103.88,0,0,0,274.53,141.18Z"/><path class="cls-2" d="M236.71,117l-32.33,6.28.64-42.6L84.88,130.85l2.77,8c1.06,3.06,23.86,68.09,56.61,102.83a103.92,103.92,0,0,0,26.39,3.39c1.77,0,3.52,0,5.26-.13-4.95-3.52-8.58-6.5-8.64-6.54l-.3-.23c-28.07-21.21-51.42-76.65-59.4-97.3l81.25-34,14.37,96.41.89-59.73,26.5-10.72c-.12,1.15-.22,2.3-.3,3.44a137,137,0,0,0-.24,15.15,146.64,146.64,0,0,0,1.41,14.88c.67,4.91,1.7,9.74,2.81,14.51-.08-4.91-.06-9.79.31-14.63a139.83,139.83,0,0,1,1.71-14.37,127.45,127.45,0,0,1,3.23-13.89c.65-2.27,1.4-4.49,2.2-6.66.4-1.09.82-2.16,1.27-3.2s.93-2.15,1.33-2.86l6.17-10.94Z"/><circle class="cls-2" cx="164.2" cy="175.84" r="14.61"/><circle class="cls-2" cx="151.36" cy="157.87" r="6.12"/></svg>