<svg id="Layer_1" data-name="Layer 1" xmlns="http://www.w3.org/2000/svg" viewBox="0 0 324 324"><defs><style>.cls-1{fill:#1c2880;}</style></defs><path class="cls-1" d="M113.42,56.94c7.41,27.42,23,40.85,46,39.68,21.46-1.09,36.69-16.16,40.76-40.33a23.4,23.4,0,0,1,18.5,22.89q.34,46.21,0,92.44c-.12,12.27-6.45,19.39-16.54,20.62-4.69.58-7.05-.69-7.26-5.85-.48-12.12-1.44-24.21-2.06-36.32-1.25-24.26-15.29-37.95-39.62-38.3-11.13-.16-22.26,0-33.4-.08-15.45-.17-24.45-9.13-24.67-24.51a62.43,62.43,0,0,1,.41-11.29C97.28,65.74,103.09,59.18,113.42,56.94Z"/><path class="cls-1" d="M291.89,208.12c-23.27-9.85-45,.29-55,16.36-12,19.39-7.61,39.88,12.75,59.16-9.6,8.39-19.53,9.8-30,3.79q-39.08-22.38-78-45.05c-11.14-6.5-14.77-15-11-24.65,2.22-5.76,3.92-6.5,9.35-3.8,11,5.48,22,11.12,33.05,16.56,21.21,10.42,39.28,5.25,51.69-14.94,5.52-9,10.62-18.21,15.87-27.34,9.32-16.22,20.8-19.54,36.72-10a49.53,49.53,0,0,1,13,11C294.62,194.57,294.85,201.19,291.89,208.12Z"/><path class="cls-1" d="M77.41,295.42c19-18.59,23.15-38.46,11.86-57.52-10.89-18.4-31-25-54.32-17.67-3.05-3.77-3.71-7.91-2.2-12.62a24.93,24.93,0,0,1,11.67-14.5C70.6,178,96.73,162.86,123,147.89c10.68-6.09,20-4.83,26.35,3.05,3.87,4.81,3.68,6.58-1.42,10-10.1,6.72-20.29,13.3-30.38,20-20.26,13.51-24.83,31.85-13.1,53.11,5.37,9.75,11.16,19.26,16.61,29,7.76,13.8,4.41,25.83-9.29,33.92-2.57,1.52-5.11,3.1-7.79,4.4C96.48,305,84,305.62,77.41,295.42Z"/><path class="cls-1" d="M305.29,251.19l6.55-.49-.95-12.63-6.47.48a31.93,31.93,0,0,0-4.57-9.77l4.44-4.65-9.17-8.75-4.4,4.62a31.55,31.55,0,0,0-10.91-4.4v-6.36H267.14v6.36a31.81,31.81,0,0,0-13.38,6.15l-4.83-4.19-8.31,9.57,4.87,4.22a31.8,31.8,0,0,0-3.88,11.94l-6.5.49.95,12.63,6.57-.49a32.1,32.1,0,0,0,4.62,9.63l-4.59,4.81,9.17,8.74,4.62-4.84a31.83,31.83,0,0,0,10.69,4.26v6.71h12.67v-6.71a31.82,31.82,0,0,0,13.16-6l5.06,4.38,8.3-9.57-5-4.34A31.87,31.87,0,0,0,305.29,251.19ZM273.47,266a18.76,18.76,0,1,1,18.76-18.75A18.75,18.75,0,0,1,273.47,266Z"/><path class="cls-1" d="M188.76,57.71l6.54-.5-1-12.63-6.47.49a31.82,31.82,0,0,0-4.57-9.77l4.44-4.66-9.16-8.75-4.41,4.62a32,32,0,0,0-10.91-4.4V15.76H150.6v6.35a31.94,31.94,0,0,0-13.38,6.15l-4.83-4.19-8.3,9.57L129,37.87a31.74,31.74,0,0,0-3.88,11.94l-6.5.49,1,12.63,6.57-.5a32,32,0,0,0,4.61,9.63l-4.58,4.81,9.16,8.74,4.62-4.84A31.93,31.93,0,0,0,150.6,85v6.71h12.67V85a32.11,32.11,0,0,0,13.17-6l5.05,4.38,8.3-9.57-5-4.35A31.84,31.84,0,0,0,188.76,57.71Zm-31.82,14.8a18.76,18.76,0,1,1,18.75-18.76A18.76,18.76,0,0,1,156.94,72.51Z"/><path class="cls-1" d="M84.18,263.86l6.54-.49-1-12.63-6.47.49a32,32,0,0,0-4.57-9.78l4.44-4.65L74,228.05l-4.41,4.62a32,32,0,0,0-10.91-4.4v-6.35H46v6.35a31.94,31.94,0,0,0-13.38,6.15l-4.83-4.19-8.3,9.57L24.38,244A32,32,0,0,0,20.49,256l-6.5.48,1,12.64,6.56-.5a32.23,32.23,0,0,0,4.62,9.63L21.54,283l9.17,8.74,4.62-4.84A31.92,31.92,0,0,0,46,291.19v6.72H58.69v-6.72a31.86,31.86,0,0,0,13.17-6l5,4.39,8.3-9.57-5-4.35A31.83,31.83,0,0,0,84.18,263.86ZM52.36,278.67a18.76,18.76,0,1,1,18.75-18.76A18.76,18.76,0,0,1,52.36,278.67Z"/></svg>